# xmcd CD database file
#
# Track frame offsets:
#	150
#	16660
#	37636
#	57712
#	71447
#	89813
#	108501
#	125387
#	138803
#	154295
#	180122
#	210493
#
# Disc length: 3067 seconds
#
# Revision: 0
# Processed by: cddbd v1.4PL0 Copyright (c) Steve Scherf et al.
# Submitted via: CDex 1.50beta10
#
DISCID=970bf90c
DTITLE=Paris Slim - Bleedin' Heart
DYEAR=1996
DGENRE=Blues
TTITLE0=Molly's Backyard Blues
TTITLE1=Too Hot in Here
TTITLE2=Bleedin' Heart
TTITLE3=Let's Talk About Love
TTITLE4=If You Dig Me (Let Me Know)
TTITLE5=The Day I Met the Boogie Man
TTITLE6=You Did Me Wrong
TTITLE7=Hit the Road and Ride
TTITLE8=Doggin' the Dog [Instrumental]
TTITLE9=The Candle's Burnin' Low
TTITLE10=No Escapin' from the Blues (In This House Full of Blues)
TTITLE11=If You Dig Me (Let Me Know) [Live Mix]
EXTD=YEAR: 1996
EXTT0=
EXTT1=
EXTT2=
EXTT3=
EXTT4=
EXTT5=
EXTT6=
EXTT7=
EXTT8=
EXTT9=
EXTT10=
EXTT11=
PLAYORDER=
